<svg xmlns="http://www.w3.org/2000/svg" viewBox="0 0 108 28" role="img" aria-label="SSL Secured">
  <path fill="#0B7A45" d="M10.2 8.4h1.15V6.55a3.65 3.65 0 0 1 7.3 0V8.4h1.15c.64 0 1.2.52 1.2 1.16v8.28c0 .64-.56 1.16-1.2 1.16H10.2c-.64 0-1.2-.52-1.2-1.16V9.56c0-.64.56-1.16 1.2-1.16zm2.4-1.85a2.5 2.5 0 0 1 5 0V8.4h-5V6.55zM13.85 16.15a1.55 1.55 0 1 0 0-3.1 1.55 1.55 0 0 0 0 3.1z"/>
  <text x="26" y="12.2" font-family="Arial, Helvetica, sans-serif" font-size="10.5" font-weight="800" fill="#12352A">SSL</text>
  <text x="26" y="23.2" font-family="Arial, Helvetica, sans-serif" font-size="7" font-weight="700" letter-spacing="1.6" fill="#0B7A45">SECURED</text>
</svg>
